<?xml version="1.0" encoding="iso-8859-1"?>
<!-- Generator: Adobe Illustrator 21.0.0, SVG Export Plug-In . SVG Version: 6.00 Build 0)  -->
<svg xmlns="http://www.w3.org/2000/svg" xmlns:xlink="http://www.w3.org/1999/xlink" version="1.1" id="Capa_1" x="0px" y="0px" viewBox="0 0 512 512" style="enable-background:new 0 0 512 512;" xml:space="preserve" width="512" height="512">
<g>
	<path d="M397.491,219.415c-5.54,0-10.838,1.042-15.723,2.923c-5.403-18.122-22.212-31.377-42.067-31.377   c-5.711,0-11.165,1.108-16.174,3.101c-5.838-17.393-22.281-29.965-41.616-29.965c-4.856,0-9.525,0.804-13.895,2.267v-46.47   c0-24.203-19.691-43.895-43.895-43.895s-43.895,19.691-43.895,43.895v189.863l-17.144-25.448l-0.398-0.495   c-16.801-20.884-46.358-25.525-68.751-10.794c-11.709,7.703-19.642,19.52-22.337,33.273c-2.676,13.656,0.15,27.494,7.958,38.998   l76.406,120.437l0.301,0.457C175.965,494.873,208.505,512,243.308,512h85.751c61.938,0,112.327-50.39,112.327-112.327V263.311   C441.386,239.106,421.695,219.415,397.491,219.415z M411.386,399.673c0,45.396-36.932,82.327-82.327,82.327h-85.751   c-24.829,0-48.048-12.175-62.168-32.583L104.753,329.01l-0.301-0.457c-3.334-4.854-4.546-10.71-3.414-16.489   c1.133-5.778,4.466-10.744,9.386-13.98c9.254-6.089,21.419-4.301,28.535,4.107l71.27,105.796V119.895   c0-7.661,6.233-13.895,13.895-13.895s13.895,6.233,13.895,13.895V269.79h30v-61.798c0-7.661,6.233-13.895,13.895-13.895   s13.895,6.233,13.895,13.895v61.798h30v-34.935c0-7.661,6.233-13.895,13.895-13.895s13.895,6.233,13.895,13.895v34.935h30v-5.296   v-1.184c0-7.662,6.233-13.896,13.895-13.896s13.895,6.233,13.895,13.896V399.673z"/>
	<rect x="208.284" width="30" height="41.5"/>
	<rect x="261.832" y="28.147" transform="matrix(0.6736 -0.7391 0.7391 0.6736 60.3529 222.949)" width="41.5" height="30"/>
	<rect x="290.574" y="84.644" transform="matrix(0.9957 -0.0926 0.0926 0.9957 -7.8875 29.2482)" width="41.5" height="30"/>
	<rect x="148.06" y="22.397" transform="matrix(0.7391 -0.6736 0.6736 0.7391 13.4755 121.0881)" width="30" height="41.5"/>
	<rect x="119.318" y="78.894" transform="matrix(0.0926 -0.9957 0.9957 0.0926 22.6684 224.1608)" width="30" height="41.5"/>
</g>















</svg>
