<svg id="Capa_1" enable-background="new 0 0 512.005 512.005" height="512" viewBox="0 0 512.005 512.005" width="512" xmlns="http://www.w3.org/2000/svg"><g><path d="m160.927 10.36c-13.941-13.94-36.588-13.799-50.352.343l-78.813 80.978c-21.804 22.406-5.972 60.033 25.345 60.033h27.896v325.288c0 19.299 15.701 35 35 35h34c19.299 0 35-15.701 35-35v-325.287h27.896c31.444 0 47.26-38.122 25.007-60.374z" fill="#fd5"/><path d="m454.898 360.291h-27.896v-325.288c0-19.299-15.701-35-35-35h-34c-19.299 0-35 15.701-35 35v325.288h-27.896c-31.444 0-47.262 38.122-25.008 60.374l80.979 80.979c13.942 13.942 36.59 13.8 50.352-.342l78.813-80.979c21.806-22.407 5.972-60.032-25.344-60.032z" fill="#ffb555"/></g></svg>