<?xml version="1.0" standalone="no"?>
<!DOCTYPE svg PUBLIC "-//W3C//DTD SVG 20010904//EN"
 "http://www.w3.org/TR/2001/REC-SVG-20010904/DTD/svg10.dtd">
<svg version="1.0" xmlns="http://www.w3.org/2000/svg"
 width="700.000000pt" height="700.000000pt" viewBox="0 0 700.000000 700.000000"
 preserveAspectRatio="xMidYMid meet">
<metadata>
Created by potrace 1.14, written by Peter Selinger 2001-2017
</metadata>
<g transform="translate(0.000000,700.000000) scale(0.100000,-0.100000)"
fill="#000000" stroke="none">
<path d="M5185 6847 c-33 -24 -103 -72 -155 -107 -52 -36 -97 -68 -100 -71 -3
-3 -77 -54 -165 -115 -88 -60 -169 -116 -181 -124 -12 -8 -48 -33 -80 -55 -33
-22 -63 -43 -69 -48 -9 -7 -126 -88 -470 -325 -125 -86 -135 -96 -136 -125 0
-18 0 -314 1 -658 l1 -625 -98 1 c-54 0 -104 -1 -110 -3 -10 -3 -13 -122 -13
-548 l0 -544 164 0 163 0 1 -482 c0 -432 -5 -590 -24 -738 -7 -52 -9 -72 -18
-195 -4 -49 -9 -97 -11 -105 -2 -8 -6 -44 -10 -80 -5 -63 -12 -127 -20 -200
-2 -19 -7 -69 -10 -110 -6 -78 -16 -164 -19 -167 -1 -1 -17 -5 -36 -8 -97 -16
-182 -61 -237 -125 -28 -34 -73 -119 -73 -140 0 -6 -4 -18 -10 -28 -14 -26
-298 -787 -295 -790 2 -3 2223 -4 2581 -2 l41 0 -173 459 c-94 252 -182 474
-195 494 -41 62 -137 112 -251 132 -26 4 -38 11 -39 23 0 9 -2 28 -4 42 -3 26
-15 152 -20 205 -4 44 -15 155 -20 195 -3 19 -7 62 -10 95 -3 33 -7 76 -10 95
-2 19 -7 67 -10 105 -3 39 -8 88 -10 110 -2 22 -7 67 -10 100 -3 33 -8 73 -11
88 -2 16 -5 32 -5 35 -1 4 -1 229 0 500 l1 492 165 0 165 0 0 545 c0 512 -1
545 -17 546 -10 1 -21 1 -25 0 -5 0 -8 2 -8 6 0 5 60 127 133 272 l132 265
210 2 c116 1 219 4 231 7 12 3 45 8 75 12 30 3 83 13 119 21 36 9 74 17 85 20
42 8 180 68 239 103 80 47 175 143 217 219 l34 60 95 0 c52 0 101 1 108 1 9 1
12 139 12 656 l0 655 -877 0 -878 -1 -60 -42z"/>
<path d="M735 6617 c-97 -177 -118 -216 -137 -254 -19 -36 -36 -50 -127 -100
-58 -32 -119 -66 -136 -75 -16 -10 -49 -27 -72 -39 l-43 -22 29 -18 c15 -9 64
-36 107 -59 82 -44 178 -98 205 -115 8 -5 51 -75 94 -155 43 -80 86 -157 95
-173 l17 -27 91 168 c51 93 100 176 109 184 10 8 78 47 151 87 73 39 146 80
163 90 l29 18 -169 92 c-93 51 -176 100 -184 109 -8 9 -34 53 -57 97 -38 70
-129 236 -134 242 -1 2 -15 -21 -31 -50z"/>
<path d="M2849 5795 c-7 -2 -4 -207 4 -212 11 -7 197 -6 204 1 5 4 7 118 4
188 l-1 26 -105 -1 c-58 -1 -106 -1 -106 -2z"/>
<path d="M2035 5661 c-42 -27 -96 -80 -144 -143 -43 -58 -131 -221 -131 -244
0 -17 -23 -29 -114 -61 -39 -14 -109 -39 -156 -55 -47 -17 -107 -38 -135 -48
-27 -10 -147 -53 -265 -95 -118 -43 -233 -84 -255 -91 -22 -7 -78 -27 -125
-44 -154 -57 -424 -152 -457 -162 -21 -5 -33 -15 -33 -26 -1 -53 -1 -536 0
-637 l0 -120 650 1 c358 1 649 0 648 -2 -2 -1 -79 -81 -173 -176 -197 -201
-250 -258 -361 -388 -281 -330 -472 -624 -539 -832 -75 -231 -99 -482 -61
-628 50 -196 174 -316 374 -365 52 -12 26 -13 -295 -14 l-353 -1 0 -163 0
-164 325 1 c178 1 321 -2 317 -5 -4 -4 -25 -12 -47 -19 -139 -44 -309 -173
-362 -275 -9 -16 -62 -193 -119 -392 -56 -199 -105 -371 -109 -382 l-6 -21
1255 0 c691 0 1256 3 1256 8 0 29 -228 797 -248 837 -40 74 -138 169 -214 205
-34 16 -72 30 -82 30 -11 0 -16 3 -12 7 3 4 180 7 393 7 l386 1 1 163 1 162
-328 0 -329 0 7 63 c3 35 7 74 9 88 3 13 7 51 11 84 4 33 8 74 10 90 5 41 15
122 20 165 2 19 9 78 15 130 6 52 13 111 15 130 3 19 7 60 10 90 3 30 8 69 10
85 3 26 11 85 30 245 2 19 7 69 11 110 3 41 8 83 9 92 3 16 10 72 21 183 2 28
9 82 14 120 10 76 16 129 26 245 3 41 7 82 9 90 2 8 6 51 10 95 4 44 8 91 10
105 1 14 6 59 10 100 4 41 9 83 11 94 2 10 6 53 9 95 3 42 8 92 10 111 3 19 7
71 11 115 3 44 8 98 10 120 6 71 17 279 18 330 0 162 -58 293 -177 401 -56 50
-201 134 -233 134 -7 0 -16 5 -20 11 -3 6 -6 105 -6 220 1 115 -2 209 -6 209
-4 0 -20 -9 -37 -19z"/>
<path d="M6139 4589 c-133 -20 -230 -133 -230 -268 -2 -278 367 -374 509 -132
24 40 27 56 27 131 0 94 -13 129 -69 188 -59 63 -149 94 -237 81z"/>
<path d="M0 3418 l0 -108 110 0 110 0 0 109 0 109 -110 -1 -110 -1 0 -108z"/>
<path d="M6264 2698 c-104 -192 -118 -214 -151 -230 -15 -8 -92 -49 -171 -92
l-143 -78 48 -28 c74 -42 213 -119 260 -142 37 -19 50 -37 130 -182 48 -88 91
-169 96 -180 9 -23 6 -26 49 54 19 36 55 101 79 145 24 44 51 93 59 108 11 21
63 55 192 126 146 80 174 99 160 107 -9 6 -42 24 -72 41 -129 71 -168 92 -215
118 -41 21 -56 38 -80 83 -30 58 -155 284 -160 290 -1 2 -38 -61 -81 -140z"/>
<path d="M3051 2723 c-126 -32 -205 -134 -204 -263 1 -77 19 -125 71 -182 103
-115 282 -119 391 -8 132 133 95 354 -72 434 -65 31 -119 37 -186 19z"/>
<path d="M6137 1090 c-9 -4 -12 -36 -12 -110 l0 -105 103 0 c57 0 106 4 109 9
4 5 7 54 7 108 1 81 -1 98 -14 99 -71 4 -183 3 -193 -1z"/>
</g>
</svg>
