<svg id="Layer_1" height="512" viewBox="0 0 512 512" width="512" xmlns="http://www.w3.org/2000/svg" data-name="Layer 1"><path d="m152 128v-32c-16 8-24 32-24 32l-112 40v56h95.466c-19.966 19.144-68.866 68.652-79.466 104-24 80 40 72 40 72h88s24-200 24-232-32-40-32-40z" fill="#f69038"/><path d="m512 8h-128l-104 72v96h81.739l43.371-80h106.89z" fill="#f4a56e"/><circle cx="452" cy="196" fill="#90e3f5" r="20"/><g fill="#f69038"><circle cx="228" cy="332" r="20"/><path d="m208 88h16v16h-16z"/><path d="m448 432h16v16h-16z"/><path d="m0 254.012h16v16h-16z"/><path d="m478.142 329.858 25.858 14.142-25.858 14.142-14.142 25.858-14.142-25.858-25.858-14.142 25.858-14.142 14.142-25.858z"/></g><path d="m70.142 49.858 25.858 14.142-25.858 14.142-14.142 25.858-14.142-25.858-25.858-14.142 25.858-14.142 14.142-25.858z" fill="#90e3f5"/><path d="m424 488h-192l24-64c4.556-11.39 16.044-16 28.311-16h85.368c13.248 0 26.514 3.31 30.321 16z" fill="#0f8ca8"/><path d="m192 504h-184l16-56c4.556-11.39 24.044-24 36.311-24h85.368c13.248 0 26.514 11.31 30.321 24z" fill="#f69038"/><path d="m279.98 408.2 8.02-80.2h80l8.028 80.283" fill="#90e3f5"/><path d="m328 176h-64v80h128v-80h-4.103" fill="#90e3f5"/><path d="m288 256h80v72h-80z" fill="#0f8ca8"/><path d="m371.598 93.68-51.598 10.32v44h48z" fill="#e28c52"/><path d="m96 160h16v16h-16z" fill="#7a3909"/><path d="m8 400h200v24h-200z" fill="#7a3909"/><path d="m175.5 264c-.57 5.3-1.15 10.65-1.74 16h-37.76v-16z" fill="#7a3909"/><path d="m170.21 312c-.61 5.44-1.22 10.79-1.82 16h-32.39v-16z" fill="#7a3909"/><path d="m329.6 176c-15.464 0-29.6-12.536-29.6-28a28 28 0 0 1 28-28 30.808 30.808 0 0 1 20.592 8.52z" fill="#0f8ca8"/><path d="m288 256h80v16h-80z" fill="#232626" opacity=".2"/><path d="m264 176h24v80h-24z" fill="#fafcfc" opacity=".3"/><path d="m316.311 408h-32c-12.267 0-23.755 4.61-28.311 16l-24 64h32l24-64c4.556-11.39 16.044-16 28.311-16z" fill="#fafcfc" opacity=".3"/><path d="m151.428 165.029-14.855 5.941c2.148 5.37 7.307 22.795 2.985 32.112a9.417 9.417 0 0 1 -5.013 4.918h-118.545v16h120a8.012 8.012 0 0 0 2.53-.41 25.626 25.626 0 0 0 15.542-13.774c7.969-17.183-1.534-42.016-2.644-44.787z" fill="#7a3909" opacity=".2"/><path d="m152 104v-8c-16 8-24 32-24 32l-112 40v16l120-40c0-16 16-40 16-40z" fill="#fafcfc" opacity=".3"/><path d="m280 112 112-80h120v-24h-128l-104 72z" fill="#fafcfc" opacity=".3"/><path d="m128 224h-16.534c-19.966 19.144-68.866 68.652-79.466 104-18 60 13.5 70.5 30.375 72h9.625c-40-64 56-176 56-176z" fill="#232626" opacity=".2"/><path d="m72 440h100.259c-5.85-9.083-16.22-16-26.58-16h-85.368c-12.267 0-31.755 12.61-36.311 24l-16 56h32v-40c8-24 32-24 32-24z" fill="#232626" opacity=".2"/><path d="m392 176h-25.983l-34.417 24.653s12.4 15.934 36.4 5.267a85.331 85.331 0 0 0 24-15.679z" fill="#7a3909" opacity=".2"/><path d="m512 104h-16c-16 40-88 32-88 32l-16 32c-11.4 28.5-43.111 32.633-60.4 32.653a8.007 8.007 0 0 1 -7.474-10.972l43.874-109.681 72-48h72z" fill="#ffbe92"/></svg>